<?xml version="1.0" encoding="UTF-8" standalone="no"?>
<svg
   xmlns:dc="http://purl.org/dc/elements/1.1/"
   xmlns:cc="http://creativecommons.org/ns#"
   xmlns:rdf="http://www.w3.org/1999/02/22-rdf-syntax-ns#"
   xmlns:svg="http://www.w3.org/2000/svg"
   xmlns="http://www.w3.org/2000/svg"
   xmlns:xlink="http://www.w3.org/1999/xlink"
   xmlns:sodipodi="http://sodipodi.sourceforge.net/DTD/sodipodi-0.dtd"
   xmlns:inkscape="http://www.inkscape.org/namespaces/inkscape"
   width="256pt"
   height="206pt"
   viewBox="0 0 360 310"
   version="1.1"
   id="svg150"
   sodipodi:docname="_harbour_logo.svg"
   inkscape:version="1.0.1 (3bc2e813f5, 2020-09-07)">
  <metadata
     id="metadata156">
    <rdf:RDF>
      <cc:Work
         rdf:about="">
        <dc:format>image/svg+xml</dc:format>
        <dc:type
           rdf:resource="http://purl.org/dc/dcmitype/StillImage" />
        <dc:title />
      </cc:Work>
    </rdf:RDF>
  </metadata>
  <defs
     id="defs154">
    <linearGradient
       id="linearGradient4987">
      <stop
         stop-color="#a9ee52"
         offset="0"
         id="stop4989" />
      <stop
         stop-color="#53880e"
         offset="1"
         id="stop4991" />
    </linearGradient>
    <linearGradient
       xlink:href="#linearGradient4987"
       id="linearGradient4885"
       y2="206.79123"
       x2="85.311884"
       y1="4.4186206"
       x1="85.311884"
       gradientTransform="scale(1.0141828,0.98601554)"
       gradientUnits="userSpaceOnUse" />
    <linearGradient
       xlink:href="#linearGradient4987"
       id="linearGradient4923"
       y2="177.97501"
       x2="66.224087"
       y1="8.1075806"
       x1="66.224087"
       gradientTransform="scale(1.3076795,0.76471339)"
       gradientUnits="userSpaceOnUse" />
  </defs>
  <sodipodi:namedview
     pagecolor="#ffffff"
     bordercolor="#666666"
     borderopacity="1"
     objecttolerance="10"
     gridtolerance="10"
     guidetolerance="10"
     inkscape:pageopacity="0"
     inkscape:pageshadow="2"
     inkscape:window-width="1920"
     inkscape:window-height="1017"
     id="namedview152"
     showgrid="false"
     inkscape:zoom="2.3100559"
     inkscape:cx="266.63936"
     inkscape:cy="115.16276"
     inkscape:window-x="-8"
     inkscape:window-y="-8"
     inkscape:window-maximized="1"
     inkscape:current-layer="svg150"
     inkscape:document-rotation="0" />
  <g
     transform="matrix(0.125,0,0,-0.125,2.6789501,306.06245)"
     id="g148">
    <path
       id="path92"
       style="stroke-width:0.125"
       transform="matrix(8,0,0,-8,-21.431601,2448.4996)"
       d="m 40.623047,262.48242 c 9.23975,3.919 16.329609,8.37497 24.912109,13.9336 137.220624,19.4214 227.363044,18.78949 280.560544,7.38867 4.85625,-2.74463 5.48946,-4.64556 6.97071,-8.44531 -54.575,10.44823 -172.37324,6.64704 -312.443363,-12.87696 z" />
    <path
       fill="#4997d9"
       d="m 750.84,519.199 c -3.262,-8.187 -6.348,-15.597 -9.176,-22.133 120.332,30.688 225.27,104.942 343.086,35.821 15.74,220.496 47.34,458.816 171.17,807.113 4.24,87.85 10.44,177.85 18.72,275.68 -32.94,-389.52 -32.94,-655.742 -4.41,-1155.153 -153.8,24.028 -431.277,6.567 -566.007,-45.722 10.98,25.562 26.933,61.226 46.617,104.394"
       id="path94" />
    <path
       fill="#225aa6"
       d="M 1264.75,2259.18 C 874.328,1732.13 422.793,1043.55 272.227,812.516 422.793,1043.55 874.328,1732.13 1264.75,2259.18"
       id="path96" />
    <path
       fill="#0974c5"
       d="m 558.344,742.5 c 206.461,87.387 255.051,179.547 421.461,166.676 51.215,535.044 176.585,737.284 298.165,1058.394 -99.69,-165.17 -197.96,-330.05 -290.65,-486.98 0.004,0.03 0.016,0.07 0.02,0.1 98.45,166.7 203.2,342.34 309.27,517.76 C 1111.74,1507.86 1069.98,777.684 1069.98,599.125 994.473,638.547 729.516,620.547 420.367,496.168 c 25.957,48.164 73.844,133.75 137.977,246.332 m 157.988,274.88 h 0.02 C 673.578,943.52 633.977,874.75 598.266,812.398 c 35.687,62.329 75.324,131.157 118.066,204.982"
       id="path98" />
    <path
       fill="#095fa8"
       d="M 1264.75,2259.18 C 968.824,1847.07 953.434,1191.32 953.434,1012.76 733.383,1076.58 489.125,948.957 272.227,812.516 422.793,1043.55 874.328,1732.13 1264.75,2259.18"
       id="path100" />
    <g
       fill="#09397f"
       id="g122">
      <path
         id="path102"
         style="stroke-width:0.125"
         transform="matrix(8,0,0,-8,-21.431601,2448.4996)"
         d="m 2.6796875,246.67383 c 0,3.7115 0.5917975,6.76706 1.75,8.66406 21.3115125,2.752 56.7797655,7.0308 69.1191405,8.45117 126.808372,14.55375 229.107192,18.25782 278.210942,8.85156 0.0913,-3.11324 -0.69922,-3.9062 -1.01172,-5.37695 C 281.8143,280.37792 81.704562,255.0777 2.6796875,246.67383 Z" />
      <path
         d="m 785.875,601.973 c 1.082,0.179 2.16,0.367 3.242,0.547 -13.808,-29.848 -26.586,-57.637 -38.09,-82.868 -0.066,-0.148 -0.125,-0.3 -0.187,-0.453 -19.684,-43.168 -35.637,-78.832 -46.617,-104.394 134.73,52.289 412.207,69.75 566.007,45.722 -28.35,496.391 -28.52,762.423 3.82,1148.123 0.2,0.4 0.4,0.78 0.59,1.17 -32.94,-389.51 -27.09,-673.285 1.45,-1172.785 -153.81,24.121 -454.598,0.813 -589.328,-51.48 19.199,44.738 54.55,121.613 99.113,216.418"
         id="path104" />
      <path
         id="path108"
         style="stroke-width:0.125"
         transform="matrix(8,0,0,-8,-28.35784,2448.4996)"
         d="m 400.08789,260.11328 -0.57227,0.23242 c 0.0307,-0.007 0.0611,-0.0161 0.0918,-0.0234 0.2264,-0.0543 0.45346,-0.1279 0.68164,-0.20899 z" />
      <path
         d="m 769.867,0 c 0.821,1.01562 1.688,2.12109 2.567,3.125 45.586,54.125 131.164,99.047 254.516,94.6836 240.49,-8.4375 443.31,-25.0391 809.32,-7.0547 -360,9.1445 -798.36,47.1291 -1326.653,121.9301 C 640.898,136.34 750.098,21.3906 769.867,0 v 0"
         id="path120" />
    </g>
    <path
       d="m 1134.71,1330.7 c 56.28,116.28 105.94,217.58 139.93,284.98 -33.99,-67.4 -83.65,-168.7 -139.93,-284.98 v 0"
       id="path124" />
    <path
       d="m 751.027,519.652 c 11.504,25.231 24.282,53.02 38.09,82.868 136.246,22.773 238.443,18.75 280.863,-3.395 0,105.563 14.6,403.905 64.73,731.575 56.28,116.28 105.94,217.58 139.93,284.98 -8.28,-97.83 -14.48,-187.83 -18.72,-275.68 -123.83,-348.297 -155.43,-586.617 -171.17,-807.113 -117.816,69.121 -222.754,-5.133 -343.086,-35.821 2.883,6.661 6.031,14.219 9.363,22.586"
       id="path126" />
    <path
       d="M 598.266,812.398 C 584.34,788.078 571.035,764.781 558.344,742.5 l -0.008,-0.004 c 12.691,22.27 26.012,45.594 39.93,69.902"
       id="path128" />
    <path
       d="m 598.266,812.398 c -13.926,-24.32 -27.231,-47.617 -39.922,-69.898 12.691,22.281 25.996,45.578 39.922,69.898"
       id="path130" />
    <path
       d="m 598.266,812.398 c 35.711,62.352 75.312,131.122 118.086,204.982 80.535,16.61 160.261,17.66 237.082,-4.62 0,80.69 3.144,258.8 33.886,467.83 92.69,156.93 190.96,321.81 290.65,486.98 -121.58,-321.11 -246.95,-523.35 -298.165,-1058.394 -166.41,12.871 -215,-79.289 -421.461,-166.676 12.691,22.281 25.996,45.578 39.922,69.898"
       id="path132" />
    <path
       id="path138"
       style="stroke-width:0.125"
       transform="matrix(8,0,0,-8,-21.431601,2448.4996)"
       d="m 370.85547,247.81445 c -0.74468,0.014 -1.48575,0.0381 -2.21289,0.0996 -0.6232,0.0527 -1.24733,0.0953 -1.8711,0.14258 1.36664,-0.035 2.73211,-0.10375 4.08399,-0.24219 z" />
  </g>
  <path
     style="fill:#800000;fill-opacity:1;stroke-width:0.15305"
     d="M 236.2204,291.5833 C 187.9765,290.56423 132.812,285.71501 70.237983,276.99267 l -4.668016,-0.65069 -2.83142,-1.81791 c -7.800354,-5.00822 -14.244339,-8.62475 -19.780251,-11.10118 -0.819946,-0.36679 -1.472251,-0.68546 -1.449566,-0.70814 0.02268,-0.0227 2.277614,0.26562 5.010954,0.64067 54.349626,7.45763 108.801286,12.89278 156.259346,15.59719 14.45087,0.82348 22.04516,1.15442 40.78775,1.77743 7.68536,0.25546 38.94451,0.35794 46.99188,0.15405 24.58353,-0.62285 45.177,-2.32207 59.48833,-4.90854 1.4077,-0.25441 2.62962,-0.46257 2.71539,-0.46257 0.19399,0 -0.12268,0.85077 -1.01175,2.71818 -0.85351,1.79273 -2.15061,3.20529 -4.17712,4.54899 l -1.46342,0.97032 -3.13752,0.62232 c -19.99151,3.96524 -40.51422,6.05662 -69.33152,7.06527 -6.01423,0.2105 -29.93539,0.30335 -37.42065,0.14524 z"
     id="path416" />
  <g
     id="g79"
     transform="matrix(1.1410172,0,0,1.1410172,183.61985,110.46145)">
    <g
       id="g14">
      <title
         id="title16">background</title>
      <rect
         fill="none"
         id="canvas_background"
         height="132"
         width="132"
         y="-1"
         x="-1" />
    </g>
    <g
       id="g19">
      <title
         id="title21">Layer 1</title>
      <path
         fill="url(#linearGradient4885)"
         id="path6382"
         d="M 84.545998,17.273001 88.432,20.0963 l 3.885902,2.823299 3.886002,2.823301 3.886096,2.823299 3.886,2.823299 3.886,2.823299 c 19.73801,14.509003 17.411,20.329002 12.008,36.958 l -1.485,4.568199 -1.484,4.5681 -1.484,4.5681 -1.485,4.568199 -1.484,4.568199 -1.484,4.568405 C 103.265,121.835 97.010003,121.42099 79.525804,121.42099 H 50.7068 C 26.209802,121.285 24.671802,115.208 19.268802,98.579999 l -1.484301,-4.568405 -1.484301,-4.568199 -1.484299,-4.568199 -1.484301,-4.5681 -1.484301,-4.568199 -1.4844,-4.568199 c -7.4402,-23.34 -2.1364,-26.681 12.007999,-36.958 l 3.8859,-2.823299 3.886,-2.823301 3.885902,-2.823299 3.885899,-2.8234 3.885998,-2.823299 3.886002,-2.823299 C 65.584602,2.9838 70.401603,6.995801 84.5456,17.2729 Z"
         style="fill:url(#linearGradient4885)" />
      <path
         fill="url(#linearGradient4923)"
         id="path4909"
         d="m 7.188,57.469002 c 0.372391,3.668098 1.403501,8.090996 3.1875,13.687996 l 1.468801,4.593803 1.499999,4.5625 1.468801,4.5625 1.5,4.5625 1.4688,4.5625 1.5,4.593796 c 5.403,16.629003 6.9408,22.676003 31.437998,22.812003 h 28.812 c 17.484001,0 23.738001,0.4429 31.438001,-22.812003 l 1.4688,-4.593796 1.5,-4.5625 1.4688,-4.5625 1.125,-3.468803 C 71.937501,76.815003 33.8215,68.362999 7.192501,57.464001 Z"
         style="fill:url(#linearGradient4923)" />
      <g
         fill="#ffffff"
         id="g3366">
        <path
           id="path6354"
           d="m 85.397003,28.201 -4.0625,15.593998 1.062599,0.781303 2.687294,1.9375 2.687607,1.968697 2.687393,1.9375 2.687607,1.968803 2.875,2.062397 c 2.360596,1.611702 3.110199,2.436802 3.343697,2.6563 -0.081,0.27935 -0.306702,1.283901 -1.25,4.1875 l -1.031303,3.1875 -1.031197,3.156303 -1.031197,3.156197 -1.031303,3.156204 -1,3.156296 -1.031303,3.1875 -1.031197,3.156204 -1.031197,3.156296 -1.031303,3.156303 -1.0933,3.375 c -0.812897,2.775299 -1.371597,3.723297 -1.5,4 -0.356102,0.009 -1.315201,0.094 -4.374901,0.094 H 48.429508 c -2.861698,0.084 -3.932999,-0.116005 -4.25,-0.156303 -0.099,-0.251442 -0.471397,-0.888611 -1.4375,-4.156197 l -1.0313,-3.156204 -1.0312,-3.156296 -1.031197,-3.156303 -1.031303,-3.156197 -1.0313,-3.1875 -1.0312,-3.156303 -1,-3.156197 -1.031197,-3.156204 -1.031303,-3.156296 -1.093197,-3.375004 c -0.9795,-2.739201 -1.098301,-3.8344 -1.1563,-4.125 0.226299,-0.181408 0.7323,-0.667999 3.468597,-2.6563 l 2.687599,-1.937401 2.7187,-1.9688 2.6875,-1.9375 2.6875,-1.9687 2.6875,-1.9375 1.0312,-0.75 -4.062401,-15.594 -0.4063,0.281301 -2.6875,1.9687 -2.6875,1.9375 -2.6875,1.9688 -2.7188,1.9375 -2.687298,1.9687 -2.687601,1.9688 -2.687401,1.9375 c -3.213099,2.334301 -6.683409,4.2644 -8.687609,9.124901 -1.979401,4.8008 -0.851101,9.498997 0.969109,14.625 l 1.031,3.156097 1.03129,3.156303 1.0313,3.156197 1.0312,3.1875 1.03121,3.156303 1.03129,3.156197 1.0313,3.156204 1,3.156296 1.0312,3.1875 1.03121,3.156204 c 1.227201,3.777101 1.996702,7.685601 5.999891,11.093991 3.9487,3.36151 8.758808,3.70821 14.188,3.5625 h 33.250999 c 3.971397,0 7.927704,0.47311 12.405998,-2.28129 4.415001,-2.7154 6.273906,-7.17021 7.812496,-12.375003 l 1.0308,-3.156204 1,-3.1875 1.03121,-3.156296 1.03119,-3.156204 1.03131,-3.156197 1.03129,-3.156303 1.03121,-3.1875 1.03109,-3.156197 1.03131,-3.156303 1,-3.156296 c 1.22709,-3.777 2.92309,-7.389503 1.6875,-12.5 -1.2183,-5.038902 -4.8991,-8.1777 -9.3749,-11.25 l -2.6875,-1.9375 -2.718707,-1.968803 -2.687599,-1.968697 -2.687401,-1.9375 -2.687599,-1.968803 -2.687401,-1.9375 -2.687599,-1.968699 -0.437401,-0.3125 -0.0025,-2.99e-4 z" />
        <path
           id="path6356"
           d="m 64.526001,17.176001 c -4.308399,0.26351 -7.9562,2.579399 -11.719002,5.4688 -0.036,0.027 -0.061,0.065 -0.094,0.094 l 10.312,39.704002 4.5,9.9e-5 10.344002,-39.704002 -0.094,-0.094 c -3.213005,-2.3342 -6.133003,-5.0334 -11.375,-5.4375 -0.645401,-0.05 -1.259499,-0.069 -1.875,-0.031 l 9.99e-4,-3.99e-4 z" />
      </g>
    </g>
  </g>
</svg>
